HIERARCHY
ROOT Hips
{
	OFFSET 0.00000 0.00000 0.00000
	CHANNELS 6 Xposition Yposition Zposition Zrotation Yrotation Xrotation 
	JOINT LHipJoint
	{
		OFFSET 0 0 0
		CHANNELS 3 Zrotation Yrotation Xrotation
		JOINT LeftUpLeg
		{
			OFFSET 1.52977 -1.71332 0.88991
			CHANNELS 3 Zrotation Yrotation Xrotation
			JOINT LeftLeg
			{
				OFFSET 2.23949 -6.15296 0.00000
				CHANNELS 3 Zrotation Yrotation Xrotation
				JOINT LeftFoot
				{
					OFFSET 2.68396 -7.37412 0.00000
					CHANNELS 3 Zrotation Yrotation Xrotation
					JOINT LeftToeBase
					{
						OFFSET 0.20538 -0.56428 2.52710
						CHANNELS 3 Zrotation Yrotation Xrotation
						End Site
						{
							OFFSET 0.00000 -0.00000 1.29919
						}
					}
				}
			}
		}
	}
	JOINT RHipJoint
	{
		OFFSET 0 0 0
		CHANNELS 3 Zrotation Yrotation Xrotation
		JOINT RightUpLeg
		{
			OFFSET -1.45689 -1.71333 0.88991
			CHANNELS 3 Zrotation Yrotation Xrotation
			JOINT RightLeg
			{
				OFFSET -2.36700 -6.50329 0.00000
				CHANNELS 3 Zrotation Yrotation Xrotation
				JOINT RightFoot
				{
					OFFSET -2.69814 -7.41308 0.00000
					CHANNELS 3 Zrotation Yrotation Xrotation
					JOINT RightToeBase
					{
						OFFSET -0.18734 -0.51471 2.37479
						CHANNELS 3 Zrotation Yrotation Xrotation
						End Site
						{
							OFFSET -0.00000 -0.00000 1.22113
						}
					}
				}
			}
		}
	}
	JOINT LowerBack
	{
		OFFSET 0 0 0
		CHANNELS 3 Zrotation Yrotation Xrotation
		JOINT Spine
		{
			OFFSET 0.04294 2.14638 -0.31163
			CHANNELS 3 Zrotation Yrotation Xrotation
			JOINT Spine1
			{
				OFFSET -0.00400 2.17216 0.01486
				CHANNELS 3 Zrotation Yrotation Xrotation
				JOINT Neck
				{
					OFFSET 0 0 0
					CHANNELS 3 Zrotation Yrotation Xrotation
					JOINT Neck1
					{
						OFFSET 0.03869 1.76598 0.14916
						CHANNELS 3 Zrotation Yrotation Xrotation
						JOINT Head
						{
							OFFSET -0.00760 1.75513 -0.18948
							CHANNELS 3 Zrotation Yrotation Xrotation
							End Site
							{
								OFFSET -0.00601 1.82444 -0.08310
							}
						}
					}
				}
				JOINT LeftShoulder
				{
					OFFSET 0 0 0
					CHANNELS 3 Zrotation Yrotation Xrotation
					JOINT LeftArm
					{
						OFFSET 3.73696 0.92058 0.01733
						CHANNELS 3 Zrotation Yrotation Xrotation
						JOINT LeftForeArm
						{
							OFFSET 5.22771 -0.00000 0.00000
							CHANNELS 3 Zrotation Yrotation Xrotation
							JOINT LeftHand
							{
								OFFSET 3.45251 -0.00000 0.00000
								CHANNELS 3 Zrotation Yrotation Xrotation
								JOINT LeftFingerBase
								{
									OFFSET 0 0 0
									CHANNELS 3 Zrotation Yrotation Xrotation
									JOINT LeftHandIndex1
									{
										OFFSET 0.55212 -0.00000 0.00000
										CHANNELS 3 Zrotation Yrotation Xrotation
										End Site
										{
											OFFSET 0.44513 -0.00000 0.00000
										}
									}
								}
								JOINT LThumb
								{
									OFFSET 0 0 0
									CHANNELS 3 Zrotation Yrotation Xrotation
									End Site
									{
										OFFSET 0.45193 -0.00000 0.45193
									}
								}
							}
						}
					}
				}
				JOINT RightShoulder
				{
					OFFSET 0 0 0
					CHANNELS 3 Zrotation Yrotation Xrotation
					JOINT RightArm
					{
						OFFSET -3.63819 0.83094 -0.13694
						CHANNELS 3 Zrotation Yrotation Xrotation
						JOINT RightForeArm
						{
							OFFSET -5.23980 -0.00000 -0.00000
							CHANNELS 3 Zrotation Yrotation Xrotation
							JOINT RightHand
							{
								OFFSET -3.48042 -0.00000 -0.00000
								CHANNELS 3 Zrotation Yrotation Xrotation
								JOINT RightFingerBase
								{
									OFFSET 0 0 0
									CHANNELS 3 Zrotation Yrotation Xrotation
									JOINT RightHandIndex1
									{
										OFFSET -0.61871 -0.00000 0.00000
										CHANNELS 3 Zrotation Yrotation Xrotation
										End Site
										{
											OFFSET -0.49882 -0.00000 0.00000
										}
									}
								}
								JOINT RThumb
								{
									OFFSET 0 0 0
									CHANNELS 3 Zrotation Yrotation Xrotation
									End Site
									{
										OFFSET -0.50644 -0.00000 0.50644
									}
								}
							}
						}
					}
				}
			}
		}
	}
}
MOTION
Frames: 11
Frame Time: 0.181818
0.00 0.00 0.00 0 0 0 0 0 0 -21 0 0 0 0 0 0 0 0 0 0 0 0 0 0 21 0 0 0 0 0 0 0 0 0 0 0 0 0 0 0 0 0 0 0 0 0 0 -16 0 0 21 0 0 11 0 0 0 -8 0 0 0 0 0 0 0 0 0 0 0 0 0 0 0 0 0 0 0 0 8 0 0 0 0 0 0 0 0 0 0 0 0 0 0 0 0 0
0.00 0.00 0.00 -186.6460 -86.9233 183.2600 0.0000 0.0000 0.0000 -21.9765 10.6542 -4.0424 0.8572 5.9045 16.5075 0.6262 0.4088 -15.1055 0.0542 -1.5020 -4.1312 0.0000 0.0000 0.0000 17.3986 11.4204 -16.1888 -6.9472 -15.2873 48.6745 -1.0394 -1.9027 -20.0339 -0.3874 3.9969 -11.0680 -1.2671 -1.2972 1.2453 0.1010 -1.7610 2.4861 0.8043 -0.9171 1.8911 2.7531 0.7154 -9.1868 1.2095 0.3635 11.0722 -0.0512 0.3470 4.8379 -0.0000 0.0000 0.0000 -88.8774 -0.0327 23.9300 13.4997 -22.0150 -2.6377 -0.0000 0.0000 -16.9163 18.0699 13.2740 4.2843 -7.1250 0.0000 -0.0000 -8.4996 43.7520 0.2638 -0.0000 0.0000 0.0000 89.1632 -1.0904 22.3469 -16.1069 25.6654 -3.6921 0.0000 -0.0000 -0.1320 -18.6798 -7.0947 2.3911 7.1250 -0.0000 -0.0000 6.8990 -37.3848 1.3004
0.00 0.00 0.00 -182.3490 -83.8965 178.3690 0.0000 0.0000 0.0000 -22.5492 11.4993 -4.8422 0.7081 5.3783 14.9907 0.4116 2.4558 -13.2683 0.0687 -1.6915 -4.6539 0.0000 0.0000 0.0000 17.3819 9.8905 -12.9167 -11.5438 -18.1911 64.5352 -0.7925 -3.4928 -18.4339 -0.2476 3.2018 -8.8412 -1.4470 -0.9687 0.4109 -0.1254 -1.3023 2.4251 0.6603 -0.6892 2.2849 3.4700 1.0367 -9.1786 -0.3313 0.8420 13.1025 -0.6133 0.5204 5.4797 0.0000 -0.0000 0.0000 -86.9100 -0.5782 22.5296 12.7996 -20.9929 -2.3810 -0.0000 0.0000 -16.0026 18.2400 13.3064 4.3376 -7.1250 0.0000 -0.0000 -8.3534 43.8043 0.2483 0.0000 -0.0000 0.0000 90.9011 -1.6937 18.2083 -14.5421 23.5044 -3.0410 0.0000 0.0000 2.3994 -17.9070 -7.2340 2.3300 7.1250 -0.0000 -0.0000 7.5703 -37.4810 1.4107
0.00 0.00 0.00 -157.7570 -80.4582 154.8070 0.0000 0.0000 0.0000 -14.2320 1.5743 -16.7913 1.3531 7.3637 20.7974 -0.3479 10.3885 -3.8047 0.0820 -1.8476 -5.0846 0.0000 0.0000 0.0000 27.2539 0.1722 12.3640 -1.4114 -7.5140 21.2473 -1.0374 -3.2168 -20.6518 -0.0250 1.0214 -2.8078 4.4273 -0.0597 -0.6627 0.2658 -0.1915 2.0350 -2.2134 -0.0203 2.4534 4.1689 1.5449 -9.0094 -0.7122 1.4713 13.6694 -0.8010 0.8351 5.6498 0.0000 -0.0000 0.0000 -86.9506 0.3465 21.6306 15.2149 -24.4446 -3.3144 -0.0000 0.0000 -17.8295 18.4434 12.6859 4.1888 -7.1250 0.0000 -0.0000 -8.0396 43.1847 0.3627 0.0000 -0.0000 0.0000 90.9060 -3.0933 25.4647 -16.4325 26.1035 -3.8343 0.0000 -0.0000 -0.7566 -18.6320 -7.1229 2.3940 7.1250 -0.0000 -0.0000 6.9430 -37.4113 1.3043
0.00 0.00 0.00 -129.8460 -84.0771 125.6640 0.0000 0.0000 0.0000 -9.4640 -0.3429 -30.0773 4.0605 12.2405 36.5882 0.0017 2.1229 1.6190 0.3560 -3.8335 -10.6087 0.0000 0.0000 0.0000 32.1743 0.6693 3.5393 -1.6331 -8.0559 22.8839 -1.5054 -6.3856 -26.2534 -0.3020 -3.5335 9.7678 5.0642 -0.4795 3.1374 0.3096 -0.5857 2.7262 -2.5072 -0.2412 1.0027 3.0115 0.7506 -7.7761 0.5970 0.5108 10.5271 -0.2778 0.3812 4.4367 -0.0000 0.0000 0.0000 -86.1938 0.3072 20.8869 14.9517 -24.0788 -3.2062 -0.0000 0.0000 -17.2562 19.9555 11.9764 4.3088 -7.1250 0.0000 -0.0000 -6.5499 42.6037 0.3891 -0.0000 0.0000 0.0000 90.0107 -2.3645 26.9344 -15.8617 25.3327 -3.5866 0.0000 -0.0000 -0.0063 -18.5156 -7.4317 2.4803 7.1250 -0.0000 -0.0000 7.0833 -37.7263 1.2760
0.00 0.00 0.00 -120.6620 -84.9069 115.9810 0.0000 0.0000 0.0000 -9.5510 0.1590 -30.3968 8.7043 16.6136 55.0617 -0.0129 3.8551 -4.8991 0.6002 -4.9594 -13.7927 0.0000 0.0000 0.0000 32.1794 1.5624 0.1365 -1.9958 -8.8573 25.3499 -1.3848 -7.4609 -26.0520 -0.3261 -3.6701 10.1503 4.6792 -0.7625 3.0395 0.4207 -0.9790 2.7725 -2.1694 -0.4424 1.0798 2.9097 0.7298 -7.7556 0.7654 0.4532 11.2123 -0.2128 0.3616 4.6427 -0.0000 0.0000 0.0000 -86.9445 1.0566 19.3159 13.0090 -21.3005 -2.4566 -0.0000 0.0000 -15.5735 19.4296 12.0288 4.2043 -7.1250 0.0000 -0.0000 -7.0291 42.6045 0.4177 -0.0000 0.0000 0.0000 89.6140 -2.5798 25.3990 -15.3260 24.5983 -3.3605 0.0000 0.0000 0.3514 -18.5590 -7.4599 2.4959 7.1250 -0.0000 -0.0000 7.0504 -37.7585 1.2644
0.00 0.00 0.00 -160.0840 -88.6268 156.4670 0.0000 0.0000 0.0000 -15.4353 15.2062 22.1574 0.0647 1.6411 4.5147 -0.1359 -6.9655 -0.0594 0.8155 -5.7623 -16.0963 0.0000 0.0000 0.0000 22.7126 11.4968 -19.2064 -3.2590 -11.1029 32.6277 -0.1740 -11.9667 -19.1834 -0.9979 -6.3572 17.8243 -0.6686 -1.1561 0.6484 -0.1700 -1.5537 1.9537 0.1874 -0.7924 1.6502 2.6910 0.7226 -7.4223 1.0315 0.4727 10.1381 -0.1034 0.3684 4.7199 -0.0000 0.0000 0.0000 -87.7666 0.3062 22.4701 15.4439 -24.7608 -3.4097 -0.0000 0.0000 -18.4501 19.6768 12.4341 4.4029 -7.1250 0.0000 -0.0000 -6.8841 43.0540 0.3323 -0.0000 0.0000 0.0000 90.1023 -3.2480 24.4233 -15.5566 24.9157 -3.4570 0.0000 -0.0000 -0.0970 -18.5701 -7.1860 2.4064 7.1250 -0.0000 -0.0000 7.0037 -37.4732 1.3051
0.00 0.00 0.00 -122.0750 -83.6956 120.1450 0.0000 0.0000 0.0000 -13.7280 0.6718 -25.8097 1.4502 7.6123 21.5427 0.3730 2.3302 10.9656 0.0076 0.5639 1.5495 0.0000 0.0000 0.0000 32.0631 -1.4064 9.1344 -0.8571 -5.9040 16.5061 -1.3443 -4.1233 -23.7326 -0.0536 -1.4934 4.1074 5.0127 -0.4091 0.9661 0.2451 -0.5751 2.0204 -2.5592 -0.2259 1.4915 2.4496 0.4888 -8.5307 1.4756 0.0801 11.1652 0.0595 0.2072 4.7540 0.0000 0.0000 0.0000 -86.9984 -0.3317 22.4862 14.7806 -23.8396 -3.1367 -0.0000 0.0000 -17.2085 20.6391 13.2451 4.9323 -7.1250 0.0000 -0.0000 -6.1700 44.0112 0.1512 0.0000 0.0000 0.0000 89.9795 -3.1873 28.8260 -17.6423 27.6967 -4.3817 0.0000 -0.0000 -1.5882 -18.4396 -7.2390 2.4058 7.1250 -0.0000 -0.0000 7.1212 -37.5202 1.3191
0.00 0.00 0.00 -105.4770 -84.3660 102.1700 0.0000 0.0000 0.0000 -10.8633 -1.6958 -25.5901 4.2452 12.4798 37.4511 0.4995 1.5619 -14.0083 1.0935 -6.6454 -18.6690 0.0000 0.0000 0.0000 33.1283 3.1907 -0.9022 -2.0436 -8.9562 25.6584 -1.4170 -2.8246 -23.6587 -0.2004 -2.8829 7.9530 6.0745 -0.6735 2.9482 0.5692 -0.8161 2.3178 -2.7990 -0.3591 0.6629 2.1129 0.1474 -7.5161 1.5671 -0.2903 9.9852 0.1334 -0.0020 4.6757 0.0000 -0.0000 0.0000 -87.9696 1.1342 17.8714 13.9302 -22.6349 -2.8012 -0.0000 0.0000 -16.9387 18.7583 12.0027 4.0399 -7.1250 0.0000 -0.0000 -7.6224 42.5086 0.4716 0.0000 -0.0000 0.0000 89.6301 -1.6377 26.0504 -15.5451 24.9000 -3.4522 0.0000 0.0000 1.0901 -17.8244 -7.0827 2.2703 7.1250 -0.0000 -0.0000 7.6187 -37.3185 1.4504
0.00 0.00 0.00 202.7230 -87.6258 -205.2560 0.0000 0.0000 0.0000 -21.6531 2.3011 -6.6657 0.9173 6.1024 17.0818 0.3947 -6.4555 -11.3864 0.0017 -0.2651 -0.7284 0.0000 0.0000 0.0000 22.7524 10.5014 -12.5194 -13.5597 -18.9750 70.8551 0.0840 -5.7007 -4.7228 -0.2342 3.1144 -8.5974 0.5255 -0.4426 2.2871 -0.8576 -0.5990 1.6802 -1.1613 -0.2991 0.4242 2.2078 0.4499 -7.4011 1.6256 0.0114 12.4047 0.1388 0.1672 4.9456 0.0000 -0.0000 0.0000 -87.7137 0.7181 18.2573 12.2030 -20.1083 -2.1716 -0.0000 0.0000 -15.5580 18.0921 12.9903 4.2001 -7.1250 0.0000 -0.0000 -8.4185 43.4616 0.3220 0.0000 -0.0000 0.0000 91.3643 -4.2062 24.6361 -14.8637 23.9559 -3.1704 0.0000 0.0000 0.4720 -17.5521 -6.9981 2.2069 7.1250 -0.0000 -0.0000 7.8361 -37.2139 1.5126
0.00 0.00 0.00 214.9500 -86.8821 -216.9430 0.0000 0.0000 0.0000 -20.0144 1.0885 -11.0374 1.1449 6.7945 19.1079 0.2463 -6.9254 -9.4144 0.0036 0.3866 1.0622 0.0000 0.0000 0.0000 25.2232 7.6110 -1.4085 -8.6724 -16.5923 54.9503 0.2300 -8.7861 -0.7213 -0.0007 0.1727 -0.4746 1.6424 -0.1660 1.7539 -0.7382 -0.2114 1.3957 -1.6739 -0.0956 0.4378 2.1339 0.4520 -7.4793 1.5945 0.0387 12.1583 0.1431 0.1759 4.8825 -0.0000 -0.0000 0.0000 -87.7248 1.1594 18.4264 12.8383 -21.0498 -2.3949 -0.0000 0.0000 -16.4983 18.0493 13.0010 4.1929 -7.1250 0.0000 -0.0000 -8.4592 43.4680 0.3223 -0.0000 -0.0000 0.0000 91.1748 -3.9836 25.0474 -14.9767 24.1136 -3.2164 0.0000 0.0000 0.4954 -17.7954 -6.9748 2.2321 7.1250 -0.0000 -0.0000 7.6280 -37.2047 1.4736
